<svg display="none"
    xmlns="http://www.w3.org/2000/svg">
    <symbol viewBox="0 0 81 24" fill="none" id="logo-icon">
        <path d="M10.15 1.76007H14.02L23.26 23.0001H17.98L16.15 18.5001H7.89997L6.12997 23.0001H0.969971L10.15 1.76007ZM11.95 7.94007L9.36997 14.5401H14.56L11.95 7.94007Z" fill="#01996D"/>
        <path d="M24.8863 0.320068H29.3863V23.0001H24.8863V0.320068Z" fill="#01996D"/>
        <path d="M32.6793 8.42007H37.1793V23.0001H32.6793V8.42007ZM32.3193 3.83007C32.3193 3.11007 32.5693 2.50007 33.0693 2.00007C33.5893 1.48007 34.2093 1.22007 34.9293 1.22007C35.6493 1.22007 36.2593 1.48007 36.7593 2.00007C37.2793 2.50007 37.5393 3.11007 37.5393 3.83007C37.5393 4.55007 37.2793 5.17007 36.7593 5.69007C36.2593 6.19007 35.6493 6.44007 34.9293 6.44007C34.2093 6.44007 33.5893 6.19007 33.0693 5.69007C32.5693 5.17007 32.3193 4.55007 32.3193 3.83007Z" fill="#01996D"/>
        <path d="M38.8822 8.42007H43.7422L47.4322 18.3201H47.4922L50.9122 8.42007H55.4422L49.6822 23.0001H44.9122L38.8822 8.42007Z" fill="#01996D"/>
        <path d="M57.1422 8.42007H61.6422V23.0001H57.1422V8.42007ZM56.7822 3.83007C56.7822 3.11007 57.0322 2.50007 57.5322 2.00007C58.0522 1.48007 58.6722 1.22007 59.3922 1.22007C60.1122 1.22007 60.7222 1.48007 61.2222 2.00007C61.7422 2.50007 62.0022 3.11007 62.0022 3.83007C62.0022 4.55007 61.7422 5.17007 61.2222 5.69007C60.7222 6.19007 60.1122 6.44007 59.3922 6.44007C58.6722 6.44007 58.0522 6.19007 57.5322 5.69007C57.0322 5.17007 56.7822 4.55007 56.7822 3.83007Z" fill="#01996D"/>
        <path d="M64.3351 15.7101C64.3351 14.5501 64.5451 13.5001 64.9651 12.5601C65.3851 11.6201 65.9551 10.8201 66.6751 10.1601C67.4151 9.48007 68.2751 8.96007 69.2551 8.60007C70.2551 8.24007 71.3151 8.06007 72.4351 8.06007C73.5551 8.06007 74.6051 8.24007 75.5851 8.60007C76.5851 8.96007 77.4451 9.48007 78.1651 10.1601C78.9051 10.8201 79.4851 11.6201 79.9051 12.5601C80.3251 13.5001 80.5351 14.5501 80.5351 15.7101C80.5351 16.8701 80.3251 17.9201 79.9051 18.8601C79.4851 19.8001 78.9051 20.6101 78.1651 21.2901C77.4451 21.9501 76.5851 22.4601 75.5851 22.8201C74.6051 23.1801 73.5551 23.3601 72.4351 23.3601C71.3151 23.3601 70.2551 23.1801 69.2551 22.8201C68.2751 22.4601 67.4151 21.9501 66.6751 21.2901C65.9551 20.6101 65.3851 19.8001 64.9651 18.8601C64.5451 17.9201 64.3351 16.8701 64.3351 15.7101ZM68.8351 15.7101C68.8351 16.8101 69.1451 17.7001 69.7651 18.3801C70.4051 19.0601 71.2951 19.4001 72.4351 19.4001C73.5751 19.4001 74.4551 19.0601 75.0751 18.3801C75.7151 17.7001 76.0351 16.8101 76.0351 15.7101C76.0351 14.6101 75.7151 13.7201 75.0751 13.0401C74.4551 12.3601 73.5751 12.0201 72.4351 12.0201C71.2951 12.0201 70.4051 12.3601 69.7651 13.0401C69.1451 13.7201 68.8351 14.6101 68.8351 15.7101Z" fill="#01996D"/>
    </symbol>

    <symbol width="72" height="73" viewBox="0 0 72 73" id="play-icon">
        <path d="M35.5913 0.40329C16.0068 0.40329 0.0756836 16.5572 0.0756836 36.4122C0.0756836 56.2672 16.0068 72.4211 35.5913 72.4211C55.1758 72.4211 71.107 56.2672 71.107 36.4122C71.107 16.5572 55.1758 0.40329 35.5913 0.40329ZM35.5913 69.4204C17.6398 69.4204 3.03527 54.613 3.03527 36.4122C3.03527 18.2114 17.6398 3.40399 35.5913 3.40399C53.5428 3.40399 68.1474 18.2114 68.1474 36.4122C68.1474 54.613 53.5428 69.4204 35.5913 69.4204Z"/>
        <path d="M49.7107 35.1506L28.9933 21.6473C28.5395 21.347 27.9528 21.3308 27.4846 21.5916C27.0076 21.8553 26.7128 22.3595 26.7128 22.9089V49.9156C26.7128 50.465 27.0076 50.9691 27.4846 51.2328C27.7042 51.3545 27.9499 51.416 28.1927 51.416C28.4701 51.416 28.7505 51.3368 28.9933 51.1771L49.7107 37.6738C50.1327 37.3984 50.3899 36.9221 50.3899 36.4122C50.3899 35.9023 50.1327 35.4262 49.7107 35.1506ZM29.6724 47.1668V25.6576L46.173 36.4122L29.6724 47.1668Z"/>
    </symbol>

    <symbol width="33" height="18" viewBox="0 0 33 18" id="burger-icon">
        <line x1="0" y1="2" x2="33" y2="2" stroke="#000" stroke-width="3"/>
        <line x1="0" y1="9" x2="33" y2="9" stroke="#000" stroke-width="3"/>
        <line x1="0" y1="16" x2="33" y2="16" stroke="#000" stroke-width="3"/>
    </symbol>

    <symbol width="25" height="22" viewBox="0 0 25 22" id="cross-icon">
        <line x1="0" y1="0" x2="25" y2="22" stroke="#000" stroke-width="3"/>
        <line x1="0" y1="22" x2="25" y2="0" stroke="#000" stroke-width="3"/>
    </symbol>
</svg>